<svg width="500" height="500" viewBox="0 0 500 500" fill="none" xmlns="http://www.w3.org/2000/svg">
<g clip-path="url(#clip0_391_28)">
<line x1="241.482" y1="345.76" x2="222.67" y2="377.221" stroke="white" stroke-opacity="0.34"/>
<line x1="152.156" y1="62.6961" x2="119.103" y2="117.973" stroke="white" stroke-opacity="0.34"/>
<line x1="64.4692" y1="197.612" x2="18.2817" y2="274.857" stroke="white" stroke-opacity="0.34"/>
<line x1="84.6127" y1="115.186" x2="81.5796" y2="120.259" stroke="white" stroke-opacity="0.34"/>
<line x1="440.529" y1="390.257" x2="405.43" y2="448.957" stroke="white" stroke-opacity="0.34"/>
<line x1="57.4965" y1="20.9578" x2="48.7338" y2="35.6127" stroke="white" stroke-opacity="0.34"/>
<line x1="100.366" y1="389.146" x2="68.3756" y2="442.647" stroke="white" stroke-opacity="0.34"/>
<line x1="109.162" y1="273.853" x2="108.398" y2="275.13" stroke="white" stroke-opacity="0.34"/>
<line x1="81.393" y1="23.1135" x2="26.5962" y2="114.756" stroke="white" stroke-opacity="0.34"/>
<line x1="117.879" y1="99.6477" x2="94.3763" y2="138.954" stroke="white" stroke-opacity="0.34"/>
<line x1="106.462" y1="316.728" x2="62.7622" y2="389.812" stroke="white" stroke-opacity="0.34"/>
<line x1="387.412" y1="139.317" x2="364.391" y2="177.818" stroke="white" stroke-opacity="0.34"/>
<line x1="171.274" y1="157.257" x2="126.429" y2="232.256" stroke="white" stroke-opacity="0.34"/>
<line x1="284.873" y1="282.59" x2="281.117" y2="288.873" stroke="white" stroke-opacity="0.34"/>
<line x1="368.176" y1="101.99" x2="363.116" y2="110.453" stroke="white" stroke-opacity="0.34"/>
<line x1="363.918" y1="341.964" x2="338.362" y2="384.705" stroke="white" stroke-opacity="0.34"/>
<line x1="387.412" y1="319.344" x2="355.478" y2="372.75" stroke="white" stroke-opacity="0.34"/>
<line x1="253.81" y1="465.368" x2="241.07" y2="486.674" stroke="white" stroke-opacity="0.34"/>
<line x1="24.1264" y1="83.283" x2="3.18107" y2="118.312" stroke="white" stroke-opacity="0.34"/>
<line x1="373.11" y1="254.701" x2="358.373" y2="279.347" stroke="white" stroke-opacity="0.34"/>
<line x1="303.133" y1="32.9539" x2="277.241" y2="76.2571" stroke="white" stroke-opacity="0.34"/>
<line x1="234.441" y1="138.645" x2="188.331" y2="215.76" stroke="white" stroke-opacity="0.34"/>
<line x1="250.221" y1="74.0735" x2="247.845" y2="78.0474" stroke="white" stroke-opacity="0.34"/>
<line x1="228.979" y1="0.256597" x2="222.114" y2="11.7371" stroke="white" stroke-opacity="0.34"/>
<line x1="262.562" y1="288.69" x2="237.501" y2="330.601" stroke="white" stroke-opacity="0.34"/>
<line x1="269.453" y1="198.37" x2="268.854" y2="199.371" stroke="white" stroke-opacity="0.34"/>
<line x1="247.699" y1="1.94556" x2="204.772" y2="73.7372" stroke="white" stroke-opacity="0.34"/>
<line x1="276.282" y1="61.9011" x2="257.87" y2="92.6934" stroke="white" stroke-opacity="0.34"/>
<line x1="267.338" y1="231.958" x2="233.104" y2="289.212" stroke="white" stroke-opacity="0.34"/>
<line x1="487.429" y1="92.9773" x2="469.395" y2="123.138" stroke="white" stroke-opacity="0.34"/>
<line x1="386.331" y1="24.988" x2="351.2" y2="83.7413" stroke="white" stroke-opacity="0.34"/>
<line x1="407.102" y1="205.215" x2="404.159" y2="210.137" stroke="white" stroke-opacity="0.34"/>
<line x1="472.361" y1="63.7361" x2="468.397" y2="70.3653" stroke="white" stroke-opacity="0.34"/>
<line x1="469.025" y1="251.728" x2="449.005" y2="285.21" stroke="white" stroke-opacity="0.34"/>
<line x1="487.429" y1="234.008" x2="462.413" y2="275.845" stroke="white" stroke-opacity="0.34"/>
<line x1="382.768" y1="348.4" x2="372.788" y2="365.091" stroke="white" stroke-opacity="0.34"/>
<line x1="202.837" y1="49.0813" x2="186.429" y2="76.5227" stroke="white" stroke-opacity="0.34"/>
<path fill-rule="evenodd" clip-rule="evenodd" d="M164.418 -26.4169C166.718 -30.8563 168 -35.7955 168 -41C168 -60.33 150.315 -76 128.5 -76C117.3 -76 107.188 -71.8695 100 -65.2339C92.8116 -71.8695 82.7002 -76 71.5 -76C55.498 -76 41.7184 -67.5686 35.5109 -55.446C17.205 -52.5086 3.26714 -38.2376 3.0038 -20.9972C2.83611 -20.9991 2.66818 -21 2.5 -21C-19.3152 -21 -37 -5.32996 -37 14C-37 33.33 -19.3152 49 2.5 49C14.503 49 25.2556 44.2562 32.5 36.769C39.7444 44.2562 50.497 49 62.5 49C69.6435 49 76.344 47.3198 82.1258 44.381C87.9807 47.3198 94.7661 49 102 49C114.03 49 124.819 44.3536 132.152 36.9999C135.149 37.6536 138.279 38 141.5 38C149.11 38 156.217 36.066 162.246 32.7152C167.932 45.2737 180.485 54 195.057 54C206.015 54 215.83 49.0662 222.443 41.2794C229.056 49.0662 238.872 54 249.829 54C256.35 54 262.467 52.2525 267.745 49.1961C273.089 52.2525 279.283 54 285.887 54C296.868 54 306.717 49.1679 313.41 41.5203C316.146 42.1999 319.003 42.56 321.942 42.56C332.911 42.56 342.736 37.5449 349.349 29.6318C355.525 37.7796 365.035 43 375.702 43C378.45 43 381.121 42.6536 383.678 41.9999C389.934 49.3536 399.14 54 409.404 54C415.576 54 421.365 52.3198 426.361 49.381C431.294 52.3198 437.011 54 443.105 54C453.347 54 462.521 49.2562 468.702 41.769C474.883 49.2562 484.057 54 494.298 54C512.911 54 528 38.33 528 19C528 -0.329964 512.911 -16 494.298 -16C494.155 -16 494.011 -15.9991 493.868 -15.9972C493.644 -33.2376 481.752 -47.5086 466.133 -50.446C460.837 -62.5686 449.08 -71 435.427 -71C425.87 -71 417.243 -66.8695 411.11 -60.2339C404.977 -66.8695 396.35 -71 386.794 -71C368.181 -71 353.092 -55.33 353.092 -36C353.092 -30.7955 354.186 -25.8563 356.148 -21.4169C354.213 -19.963 352.431 -18.2992 350.831 -16.457C348.594 -19.5177 345.905 -22.2112 342.864 -24.4331C344.963 -29.0503 346.133 -34.1872 346.133 -39.6C346.133 -59.7032 329.99 -76 310.076 -76C299.852 -76 290.622 -71.7043 284.06 -64.8032C277.498 -71.7043 268.268 -76 258.044 -76C243.436 -76 230.858 -67.2314 225.191 -54.6239C208.481 -51.569 195.758 -36.7271 195.517 -18.7971C195.364 -18.799 195.211 -18.8 195.057 -18.8C188.334 -18.8 182.04 -16.9423 176.652 -13.7075C173.755 -18.7732 169.542 -23.1312 164.418 -26.4169Z" fill="url(#paint0_linear_391_28)"/>
</g>
<defs>
<linearGradient id="paint0_linear_391_28" x1="432.014" y1="54" x2="432.6" y2="-60.4992" gradientUnits="userSpaceOnUse">
<stop stop-color="#AFACAC"/>
<stop offset="1" stop-color="white"/>
</linearGradient>
<clipPath id="clip0_391_28">
<rect width="500" height="500" fill="white"/>
</clipPath>
</defs>
</svg>
